<svg id="Layer_1" data-name="Layer 1" xmlns="http://www.w3.org/2000/svg" viewBox="0 0 638 201.41"><defs><style>.cls-1{fill:#ee4d2d;}</style></defs><title>Shopee Logo Vector</title><path class="cls-1" d="M297.67,542.41c1.82-15-7.82-24.52-33.27-32.64-12.33-4.21-18.14-9.72-18-17.31.51-8.41,8.34-14.54,18.73-14.74a42.13,42.13,0,0,1,23,7.09c.92.58,1.57.49,2.1-.31.72-1.16,2.5-3.94,3.1-4.93a1.53,1.53,0,0,0-.54-2.24,52.14,52.14,0,0,0-7.83-4.24,51.35,51.35,0,0,0-20-4.1c-15.2.06-27.18,9.68-28.18,22.52-.66,9.26,3.93,16.79,13.77,22.52,2.09,1.22,13.39,5.71,17.88,7.11,14.13,4.4,21.47,12.29,19.74,21.49-1.56,8.34-10.34,13.73-22.44,13.89A43.63,43.63,0,0,1,240.76,547l-1.12-.87a1.45,1.45,0,0,0-2.28.23c-.41.62-3,4.36-3.65,5.34s-.29,1.34.35,1.87a56.45,56.45,0,0,0,9,6.17,53.43,53.43,0,0,0,22.53,5.79,39,39,0,0,0,16.54-2.82A25,25,0,0,0,297.67,542.41ZM266.26,410.46c-16.48,0-29.91,15.53-30.54,35h61.07C296.16,426,282.73,410.46,266.26,410.46Zm62.55,180h-.63l-125.76,0h0c-8.55-.32-14.84-7.25-15.7-15.86l-.09-1.55L181,449.36h0a2.62,2.62,0,0,1,0-.28,3.66,3.66,0,0,1,3.59-3.66h39.64c1-25.66,19.41-46.13,42-46.13s41.06,20.47,42,46.13h39.58a3.66,3.66,0,0,1,3.66,3.66c0,.06,0,.12,0,.19h0l-6.16,124.19-.06,1A17.3,17.3,0,0,1,328.81,590.49Zm90.65-82.4c27.08,8.1,37.73,18.24,36,34.52A27.09,27.09,0,0,1,439.05,565a41.89,41.89,0,0,1-17.66,3.33,57,57,0,0,1-24-5.72,59.85,59.85,0,0,1-9.76-6.39h0c-1.44-1.22-1.61-2-.63-3.47l1.81-2.74,1.9-2.87c1.15-1.75,2.37-1.75,4.06-.59l.6.44.59.44a44.17,44.17,0,0,0,25.35,9.16c12.08-.38,20.59-5.8,22-13.85,1.51-8.85-5.8-16.43-20.09-20.6a165.82,165.82,0,0,1-19-7.15c-10.72-6-15.88-14.11-15.35-24.23.85-14,13.68-24.63,30.07-25a54.77,54.77,0,0,1,21.35,4,55.73,55.73,0,0,1,8.47,4.39c1.84,1.3,1.84,2.19.95,3.87-.13.22-.61.91-1.85,2.68h0c-1.31,1.86-1.7,2.43-1.81,2.62-1.08,1.39-2,1.82-3.82.71a41.06,41.06,0,0,0-22.85-6.84c-10.21.38-17.72,6.44-18.08,14.47C401.27,498.83,407,504.09,419.46,508.09Zm76-4.06c16.52,0,30.17,13.34,30.23,29.68v31.93c0,1.84-.48,2.28-2.28,2.28h-7.59c-1.83,0-2.29-.44-2.29-2.28V533.81a18.07,18.07,0,0,0-36.14-.07v31.9c0,1.59-.63,2.28-2.28,2.28h-7.61c-1.81,0-2.28-.67-2.28-2.28V468c0-1.68.47-2.28,2.28-2.28h7.61c1.63,0,2.28.63,2.28,2.28v42A30.29,30.29,0,0,1,495.42,504ZM568,556.41a20.28,20.28,0,1,0-20.7-20.28A20.5,20.5,0,0,0,568,556.41Zm0-52.32c18.06,0,32.7,14.35,32.7,32.06S586.08,568.2,568,568.2s-32.7-14.35-32.7-32.05S550,504.09,568,504.09Zm202,24.62h36.22A19.85,19.85,0,0,0,788,515.79,18.45,18.45,0,0,0,770.05,528.71Zm45.21,11.75h-46a19.81,19.81,0,0,0,10.79,13.69,27.58,27.58,0,0,0,4.71,1.72c8.18,1.71,17.58.46,24.74-5.9.1-.11.29-.23.5-.42,1.2-1,2.05-.79,3,.39,0,0,1.34,1.87,3.75,5.69,1,1.61,1,2.39-.78,4.17l-.41.38c-.33.29-.72.61-1.18,1a30.63,30.63,0,0,1-4.67,2.88c-6.71,3.38-15,5-24.8,3.78l-.84-.13v0l-.56-.11a32.87,32.87,0,0,1-18.38-10.14l0,0a31.31,31.31,0,0,1-7.86-16.94h0l0-.42a32.42,32.42,0,0,1-.23-3.94c0-17.7,13.87-32.05,31-32.05s31,14.35,31,32.05v.23a2.44,2.44,0,0,1,0,.27,3.81,3.81,0,0,1-3.58,3.85ZM642.91,556.24a20.28,20.28,0,1,0-20.33-20.8v1A20.31,20.31,0,0,0,642.91,556.24Zm0-52.31a32.05,32.05,0,1,1-20.34,56.87v37.63c0,1.69-.47,2.28-2.28,2.28h-7.24c-1.81,0-2.28-.6-2.28-2.28V506.21c0-1.77.47-2.28,2.28-2.28h7.24c1.81,0,2.28.55,2.28,2.28v5A32.07,32.07,0,0,1,642.92,503.93Zm55.35,24.78h36.22a19.85,19.85,0,0,0-18.27-12.92A18.45,18.45,0,0,0,698.27,528.71Zm48.94,7.39v.23a2.44,2.44,0,0,1,0,.27,3.81,3.81,0,0,1-3.58,3.85H697.52a19.84,19.84,0,0,0,10.79,13.69,27.58,27.58,0,0,0,4.71,1.72c8.18,1.71,17.58.46,24.74-5.9.1-.11.29-.23.5-.42,1.2-1,2-.79,3,.39,0,0,1.34,1.87,3.75,5.69,1,1.61,1,2.39-.78,4.17l-.41.38c-.32.29-.72.61-1.18,1A30.63,30.63,0,0,1,738,564c-6.71,3.38-15,5-24.8,3.78l-.84-.13v0l-.56-.11a32.87,32.87,0,0,1-18.38-10.14l0,0a31.22,31.22,0,0,1-7.85-16.94h0l0-.42a32.42,32.42,0,0,1-.23-3.94c0-17.7,13.87-32.05,31-32.05S747.21,518.4,747.21,536.1Z" transform="translate(-181 -399.29)"/></svg>