<svg width="512" height="512" xmlns="http://www.w3.org/2000/svg" xmlns:xlink="http://www.w3.org/1999/xlink" xml:space="preserve" overflow="hidden"><defs><clipPath id="clip0"><rect x="0" y="0" width="512" height="512"/></clipPath></defs><g clip-path="url(#clip0)"><path d="M23.0703-0.53125C24.5074-0.53699 24.5074-0.53699 25.9736-0.542847 27.9958-0.545559 30.018-0.538244 32.04-0.521484 35.0952-0.500207 38.148-0.521235 41.2031-0.546875 60.4761-0.574631 75.9912 3.41542 90.3555 17.1016 102.547 30.464 106.275 45.8858 109.25 63.25 109.52 64.7853 109.791 66.3205 110.062 67.8555 110.718 71.5687 111.362 75.2837 112 79 112.738 79.0006 113.476 79.0012 114.236 79.0018 157.985 79.0377 201.733 79.0944 245.482 79.1779 250.738 79.1879 255.994 79.1978 261.249 79.2075 262.819 79.2104 262.819 79.2104 264.42 79.2134 281.35 79.2444 298.28 79.2614 315.211 79.2732 332.589 79.2856 349.968 79.3131 367.346 79.3546 378.065 79.3797 388.784 79.3931 399.504 79.3914 406.859 79.3914 414.215 79.4061 421.57 79.4322 425.811 79.4468 430.051 79.455 434.292 79.4458 438.181 79.4375 442.071 79.4478 445.961 79.4723 447.36 79.478 448.76 79.4771 450.16 79.4685 467.449 79.3721 482.13 84.6889 494.719 96.6602 507.352 109.617 512.441 124.379 512.412 142.188 512.223 152.149 510.035 161.161 507.332 170.695 506.833 172.537 506.336 174.38 505.842 176.223 504.792 180.131 503.728 184.035 502.654 187.936 500.97 194.08 499.353 200.24 497.751 206.405 497.346 207.968 497.346 207.968 496.932 209.562 496.381 211.682 495.831 213.802 495.28 215.922 493.89 221.265 492.487 226.605 491.084 231.945 490.52 234.093 489.956 236.24 489.391 238.388 489.111 239.455 488.831 240.522 488.542 241.621 487.39 246.007 486.242 250.393 485.093 254.779 483.963 259.092 482.83 263.404 481.698 267.716 481.169 269.73 480.641 271.745 480.113 273.76 477.426 284.022 474.684 294.268 471.8 304.477 471.559 305.338 471.318 306.199 471.07 307.087 466.332 323.686 456.683 336.594 441.672 345.359 431.685 350.698 422.074 352.45 410.835 352.385 409.66 352.391 408.484 352.396 407.273 352.401 404.04 352.413 400.809 352.411 397.577 352.403 394.079 352.399 390.582 352.411 387.084 352.422 381.033 352.438 374.982 352.443 368.93 352.441 360.173 352.439 351.415 352.455 342.658 352.476 328.435 352.509 314.213 352.531 299.99 352.544 299.14 352.544 298.29 352.545 297.414 352.546 293.97 352.549 290.526 352.552 287.082 352.555 277.594 352.564 268.107 352.575 258.619 352.587 257.769 352.588 256.919 352.589 256.044 352.59 241.868 352.608 227.693 352.634 213.518 352.665 204.783 352.683 196.047 352.694 187.312 352.695 181.329 352.696 175.346 352.704 169.363 352.718 165.913 352.725 162.462 352.729 159.012 352.725 155.269 352.721 151.527 352.73 147.784 352.742 146.698 352.738 145.612 352.734 144.493 352.73 136.097 352.776 128.688 353.376 122 359 117.918 364.156 117.309 368.524 117.555 375.059 118.352 380.323 120.52 384.022 124.68 387.34 130.079 390.711 135.606 391.126 141.82 391.122 142.965 391.124 144.111 391.125 145.291 391.127 146.54 391.124 147.789 391.121 149.075 391.118 150.423 391.118 151.77 391.119 153.118 391.12 156.044 391.121 158.97 391.12 161.896 391.116 166.657 391.109 171.418 391.11 176.18 391.111 182.197 391.112 188.214 391.111 194.231 391.109 206.056 391.104 217.88 391.112 229.705 391.125 231.567 391.127 233.429 391.129 235.291 391.131 239.062 391.136 242.832 391.14 246.602 391.144 256.29 391.155 265.979 391.165 275.668 391.173 276.64 391.174 277.612 391.175 278.614 391.176 294.369 391.189 310.125 391.184 325.881 391.173 342.062 391.162 358.243 391.175 374.423 391.207 384.401 391.226 394.379 391.227 404.357 391.205 411.196 391.191 418.034 391.199 424.873 391.225 428.818 391.239 432.762 391.243 436.706 391.221 440.321 391.201 443.934 391.209 447.548 391.238 449.468 391.247 451.388 391.226 453.308 391.204 461.109 391.304 466.148 392.708 472 398 476.663 403.459 476.574 408.653 476.418 415.703 476.022 418.823 475.6 420.256 473.812 422.75 471.706 425.749 471.706 425.749 472.367 428.461 472.897 430.18 473.473 431.886 474.105 433.57 479.362 447.848 476.739 465.398 470.715 478.875 463.186 493.974 450.569 504.063 435 510 418.731 514.986 401.353 512.812 386.312 505.312 371.499 496.73 361.876 483.495 356.848 467.285 355.659 462.217 355.708 457.181 355.75 452 355.742 451.054 355.735 450.108 355.727 449.133 355.73 447.737 355.73 447.737 355.734 446.312 355.737 445.484 355.739 444.655 355.741 443.801 356.08 440.138 357.108 436.568 358 433 317.08 433 276.16 433 234 433 234.66 435.64 235.32 438.28 236 441 237.89 458.705 235.053 475.368 223.93 489.66 213.761 501.405 200.431 510.818 184.512 512.219 165.968 513.038 150.172 510.173 135.75 497.688 124.554 487.041 116.275 473.596 115.699 457.793 115.681 455.925 115.677 454.056 115.688 452.188 115.689 451.219 115.69 450.25 115.691 449.251 115.782 442.496 116.458 436.325 119 430 117.762 429.649 116.525 429.299 115.25 428.938 100.471 423.926 88.9167 413.977 82 400 75.3821 385.631 73.1227 369.3 77.625 353.812 83.3597 338.467 93.0615 326.165 107.438 318.062 110 317 110 317 112 317 107.792 293.601 103.583 270.202 99.3744 246.803 97.6093 236.99 95.8442 227.176 94.0793 217.363 93.5081 214.187 92.9368 211.01 92.3655 207.834 91.6078 203.621 90.8502 199.408 90.0928 195.195 88.2173 184.766 86.3399 174.336 84.4585 163.908 83.7204 159.815 82.9824 155.722 82.2446 151.629 82.0646 150.63 81.8845 149.631 81.699 148.602 79.3006 135.294 76.932 121.98 74.5902 108.661 73.6962 103.584 72.7959 98.508 71.8952 93.4321 71.0699 88.7768 70.2554 84.1198 69.4493 79.4611 68.9591 76.6427 68.4586 73.8263 67.9551 71.0102 67.6217 69.1273 67.3009 67.2421 66.9806 65.3569 65.557 57.4728 63.9304 51.0636 58.25 45.125 52.2784 41.2205 46.0831 40.7215 39.0977 40.7969 37.6152 40.7863 36.1328 40.7746 34.6504 40.7617 32.3551 40.7514 30.0611 40.75 27.7659 40.77 18.5859 40.831 10.9736 40.8012 4 34-0.584576 28.6327-0.726303 23.4086-0.511719 16.4531 0.25601 11.2724 2.17807 7.57511 6 4 11.7854-0.0241627 16.1106-0.593352 23.0703-0.53125ZM119 120C119.575 125.658 120.314 131.253 121.328 136.851 121.525 137.955 121.525 137.955 121.725 139.081 122.159 141.518 122.597 143.954 123.035 146.39 123.349 148.148 123.663 149.907 123.977 151.665 124.825 156.419 125.677 161.173 126.53 165.926 127.423 170.906 128.313 175.886 129.203 180.867 130.698 189.224 132.194 197.58 133.692 205.936 135.425 215.599 137.154 225.262 138.881 234.925 140.722 245.219 142.564 255.512 144.407 265.805 144.938 268.771 145.468 271.736 145.999 274.702 146.831 279.357 147.665 284.012 148.5 288.666 148.807 290.376 149.113 292.085 149.418 293.794 149.835 296.124 150.253 298.454 150.672 300.784 150.793 301.463 150.913 302.141 151.038 302.841 151.594 305.926 152.22 308.964 153 312 185.859 312.046 218.718 312.081 251.577 312.102 255.457 312.105 259.337 312.107 263.217 312.11 263.99 312.11 264.762 312.111 265.558 312.111 278.062 312.12 290.566 312.136 303.07 312.154 315.903 312.173 328.735 312.184 341.568 312.188 349.485 312.191 357.401 312.2 365.318 312.216 371.391 312.228 377.464 312.229 383.537 312.226 386.027 312.227 388.516 312.231 391.006 312.238 394.406 312.248 397.806 312.246 401.205 312.241 402.19 312.246 403.174 312.252 404.189 312.258 412.321 312.223 419.552 311.445 426 306 430.177 300.584 432.2 294.981 433.84 288.414 434.083 287.487 434.326 286.56 434.577 285.605 435.377 282.543 436.157 279.477 436.938 276.41 437.503 274.229 438.07 272.049 438.639 269.869 440.138 264.102 441.622 258.332 443.102 252.56 444.849 245.756 446.615 238.956 448.379 232.156 449.837 226.532 451.291 220.908 452.737 215.281 455.673 203.87 458.667 192.479 461.773 181.113 462.384 178.864 462.995 176.615 463.605 174.367 464.751 170.149 465.915 165.937 467.09 161.727 472.102 145.563 472.102 145.563 469 129.562 465.534 124.85 460.997 121.596 455.236 120.451 452.126 120.018 449.199 119.876 446.061 119.877 444.889 119.875 443.717 119.873 442.51 119.871 440.593 119.875 440.593 119.875 438.637 119.88 437.258 119.879 435.879 119.878 434.5 119.877 430.717 119.875 426.934 119.879 423.151 119.884 419.069 119.888 414.987 119.887 410.906 119.886 403.836 119.886 396.765 119.889 389.695 119.894 379.473 119.902 369.251 119.905 359.029 119.906 342.444 119.908 325.859 119.915 309.274 119.925 293.164 119.934 277.054 119.941 260.943 119.945 259.454 119.945 259.454 119.945 257.934 119.946 252.952 119.947 247.97 119.948 242.988 119.95 201.659 119.96 160.329 119.978 119 120ZM159 441.562C156.086 446.806 156.044 452.177 157 458 158.956 463.445 162.593 467.35 167.629 470.148 173.103 472.114 178.897 472.114 184.371 470.148 189.407 467.35 193.044 463.445 195 458 195.956 452.177 195.914 446.806 193 441.562 189.295 436.619 185.267 433.536 179.098 432.523 170.25 432.099 164.342 434.435 159 441.562ZM399 441.562C396.086 446.806 396.044 452.177 397 458 398.956 463.445 402.593 467.35 407.629 470.148 413.103 472.114 418.897 472.114 424.371 470.148 429.407 467.35 433.044 463.445 435 458 435.956 452.177 435.914 446.806 433 441.562 429.295 436.619 425.267 433.536 419.098 432.523 410.25 432.099 404.342 434.435 399 441.562Z" fill="#E97132"/><path d="M305.766 157.105C310.567 160.071 314.176 163.537 316 169 316.474 173.658 316.378 178.261 316.25 182.938 316.232 184.194 316.214 185.45 316.195 186.744 316.148 189.83 316.083 192.915 316 196 316.771 195.969 317.542 195.937 318.336 195.905 321.869 195.779 325.402 195.702 328.938 195.625 330.15 195.575 331.362 195.524 332.611 195.473 340.739 195.34 345.941 196.406 352 202 356.585 207.367 356.726 212.591 356.512 219.547 355.515 226.271 352.393 230.126 347.156 234.227 341.604 237.242 335.188 236.417 329.062 236.25 327.806 236.232 326.55 236.214 325.256 236.195 322.17 236.148 319.085 236.083 316 236 316.031 236.771 316.063 237.542 316.095 238.336 316.221 241.869 316.298 245.402 316.375 248.938 316.425 250.15 316.476 251.362 316.527 252.611 316.659 260.739 315.594 265.941 310 272 304.633 276.585 299.409 276.726 292.453 276.512 285.729 275.515 281.874 272.393 277.773 267.156 274.758 261.604 275.583 255.188 275.75 249.062 275.768 247.806 275.786 246.55 275.805 245.256 275.852 242.17 275.917 239.085 276 236 275.229 236.031 274.458 236.063 273.664 236.095 270.131 236.221 266.598 236.298 263.062 236.375 261.85 236.425 260.638 236.476 259.389 236.527 251.261 236.66 246.059 235.594 240 230 235.415 224.633 235.274 219.409 235.488 212.453 236.485 205.729 239.607 201.874 244.844 197.773 250.396 194.758 256.812 195.583 262.938 195.75 264.822 195.777 264.822 195.777 266.744 195.805 269.83 195.852 272.915 195.917 276 196 275.969 195.229 275.937 194.458 275.905 193.664 275.779 190.131 275.702 186.598 275.625 183.062 275.575 181.85 275.524 180.638 275.473 179.389 275.341 171.261 276.406 166.059 282 160 288.473 154.471 297.916 153.968 305.766 157.105Z" fill="#E97132"/></g></svg>