<svg width="624" height="624" xmlns="http://www.w3.org/2000/svg" xmlns:xlink="http://www.w3.org/1999/xlink" xml:space="preserve" overflow="hidden"><g><path d="M565.5 312C565.5 333.528 548.028 351 526.5 351L214.5 351C192.972 351 175.5 333.528 175.5 312 175.5 290.472 192.972 273 214.5 273L526.5 273C548.028 273 565.5 290.472 565.5 312Z" fill="#E97132"/><path d="M565.5 117C565.5 138.528 548.028 156 526.5 156L214.5 156C192.972 156 175.5 138.528 175.5 117 175.5 95.472 192.972 78 214.5 78L526.5 78C548.028 78 565.5 95.472 565.5 117Z" fill="#E97132"/><path d="M565.5 507C565.5 528.528 548.028 546 526.5 546L214.5 546C192.972 546 175.5 528.528 175.5 507 175.5 485.472 192.972 468 214.5 468L526.5 468C548.028 468 565.5 485.472 565.5 507Z" fill="#E97132"/><path d="M58.5 117C58.5 138.508 75.9915 156 97.5 156 119.009 156 136.5 138.508 136.5 117 136.5 95.4915 119.009 78 97.5 78 75.9915 78 58.5 95.4915 58.5 117Z" fill="#E97132"/><path d="M58.5 312C58.5 333.509 75.9915 351 97.5 351 119.009 351 136.5 333.509 136.5 312 136.5 290.492 119.009 273 97.5 273 75.9915 273 58.5 290.492 58.5 312Z" fill="#E97132"/><path d="M58.5 507C58.5 528.508 75.9915 546 97.5 546 119.009 546 136.5 528.508 136.5 507 136.5 485.491 119.009 468 97.5 468 75.9915 468 58.5 485.491 58.5 507Z" fill="#E97132"/></g></svg>