<?xml version="1.0" encoding="UTF-8"?>
<svg version="1.1" xmlns="http://www.w3.org/2000/svg" width="512" height="512">
<path d="M0 0 C8.76638212 5.25053629 14.46482012 12.47690795 17.2109375 22.32421875 C18.27378808 34.09839462 16.85954545 43.0025824 9.265625 52.15625 C6.46940849 55.10663054 3.44252627 57.56346396 0.21484375 60.02734375 C-3.51837171 62.88187001 -7.15029787 65.85085969 -10.7890625 68.82421875 C-15.87390839 72.96346996 -20.97493832 77.08052515 -26.1015625 81.16796875 C-29.67744071 84.03698732 -33.23294177 86.93076997 -36.7890625 89.82421875 C-41.87486899 93.96230115 -46.97492501 98.08051454 -52.1015625 102.16796875 C-55.67744071 105.03698732 -59.23294177 107.93076997 -62.7890625 110.82421875 C-67.87486899 114.96230115 -72.97492501 119.08051454 -78.1015625 123.16796875 C-81.67744071 126.03698732 -85.23294177 128.93076997 -88.7890625 131.82421875 C-93.87486899 135.96230115 -98.97492501 140.08051454 -104.1015625 144.16796875 C-107.67744071 147.03698732 -111.23294177 149.93076997 -114.7890625 152.82421875 C-119.87486899 156.96230115 -124.97492501 161.08051454 -130.1015625 165.16796875 C-133.67744097 168.03698753 -137.23291787 170.93079897 -140.7890625 173.82421875 C-146.76610104 178.68671785 -152.76347438 183.52194634 -158.7890625 188.32421875 C-160.66431517 189.82390286 -162.53931798 191.32389946 -164.4140625 192.82421875 C-165.87239583 193.99088542 -167.33072917 195.15755208 -168.7890625 196.32421875 C-167.34680934 199.79321713 -165.63628842 201.49980445 -162.6640625 203.76171875 C-161.77460938 204.45136719 -160.88515625 205.14101563 -159.96875 205.8515625 C-159.46827148 206.23812012 -158.96779297 206.62467773 -158.45214844 207.02294922 C-155.19160295 209.57413939 -151.99628972 212.20657191 -148.7890625 214.82421875 C-144.46870334 218.34068572 -140.1447124 221.85147085 -135.7890625 225.32421875 C-130.72203935 229.36414261 -125.69851633 233.45693251 -120.671875 237.546875 C-117.05586531 240.48744137 -113.43332325 243.41865951 -109.7890625 246.32421875 C-104.72203935 250.36414261 -99.69851633 254.45693251 -94.671875 258.546875 C-91.05586531 261.48744137 -87.43332325 264.41865951 -83.7890625 267.32421875 C-78.72203935 271.36414261 -73.69851633 275.45693251 -68.671875 279.546875 C-65.05586531 282.48744137 -61.43332325 285.41865951 -57.7890625 288.32421875 C-52.72203935 292.36414261 -47.69851633 296.45693251 -42.671875 300.546875 C-39.05586531 303.48744137 -35.43332325 306.41865951 -31.7890625 309.32421875 C-26.72570705 313.36121837 -21.70568959 317.45088825 -16.68286133 321.53808594 C-12.95980729 324.56590537 -9.22853007 327.58221909 -5.4765625 330.57421875 C-4.331875 331.49460937 -4.331875 331.49460937 -3.1640625 332.43359375 C-1.42786627 333.81569733 0.32450481 335.17755022 2.0859375 336.52734375 C9.76444678 342.53128452 14.57483013 347.84107926 17.2109375 357.32421875 C18.20945262 368.42399147 17.56040952 378.05870535 10.4609375 387.13671875 C4.80324263 393.19445265 -2.24332342 396.91529243 -10.5234375 397.66015625 C-11.86183411 397.68377501 -13.20046 397.69663458 -14.5390625 397.69921875 C-15.85390625 397.72757812 -17.16875 397.7559375 -18.5234375 397.78515625 C-27.49875537 397.24816237 -34.35458613 392.64544439 -40.9140625 386.88671875 C-42.38613993 385.63473577 -43.85881107 384.3834506 -45.33203125 383.1328125 C-46.0698584 382.49972168 -46.80768555 381.86663086 -47.56787109 381.21435547 C-51.07206563 378.23243921 -54.64794711 375.34101625 -58.2265625 372.44921875 C-58.89768066 371.90467041 -59.56879883 371.36012207 -60.26025391 370.79907227 C-64.52474706 367.33941068 -68.80786483 363.9038223 -73.1015625 360.48046875 C-77.3870581 357.042106 -81.6444352 353.56920148 -85.90625 350.1015625 C-89.52225969 347.16099613 -93.14480175 344.22977799 -96.7890625 341.32421875 C-101.85608565 337.28429489 -106.87960867 333.19150499 -111.90625 329.1015625 C-115.52225969 326.16099613 -119.14480175 323.22977799 -122.7890625 320.32421875 C-127.85608565 316.28429489 -132.87960867 312.19150499 -137.90625 308.1015625 C-141.52225969 305.16099613 -145.14480175 302.22977799 -148.7890625 299.32421875 C-153.85608565 295.28429489 -158.87960867 291.19150499 -163.90625 287.1015625 C-167.52225969 284.16099613 -171.14480175 281.22977799 -174.7890625 278.32421875 C-179.85608565 274.28429489 -184.87960867 270.19150499 -189.90625 266.1015625 C-193.52225969 263.16099613 -197.14480175 260.22977799 -200.7890625 257.32421875 C-205.85608565 253.28429489 -210.87960867 249.19150499 -215.90625 245.1015625 C-219.52225969 242.16099613 -223.14480175 239.22977799 -226.7890625 236.32421875 C-227.54574219 235.71578125 -228.30242187 235.10734375 -229.08203125 234.48046875 C-231.30124217 232.71278559 -233.53552564 230.96917084 -235.77734375 229.23046875 C-237.21901922 228.09539394 -238.66042448 226.95997585 -240.1015625 225.82421875 C-241.12540039 225.04111328 -241.12540039 225.04111328 -242.16992188 224.2421875 C-248.5020253 219.21393591 -252.88921555 213.29940047 -254.7890625 205.32421875 C-255.76298895 194.49778057 -255.22432589 184.84095395 -248.4140625 175.88671875 C-244.35535006 171.53448347 -239.49301448 168.03819231 -234.78515625 164.42578125 C-230.45561212 161.09303663 -226.24562163 157.62263229 -222.0390625 154.13671875 C-216.87284515 149.86311784 -211.6902065 145.61743577 -206.44140625 141.4453125 C-202.87377592 138.59225908 -199.33210637 135.70771201 -195.7890625 132.82421875 C-190.7033098 128.68607085 -185.60319926 124.56792238 -180.4765625 120.48046875 C-176.90068429 117.61145018 -173.34518323 114.71766753 -169.7890625 111.82421875 C-164.70325601 107.68613635 -159.60319999 103.56792296 -154.4765625 99.48046875 C-150.90068429 96.61145018 -147.34518323 93.71766753 -143.7890625 90.82421875 C-138.70325601 86.68613635 -133.60319999 82.56792296 -128.4765625 78.48046875 C-124.90068429 75.61145018 -121.34518323 72.71766753 -117.7890625 69.82421875 C-112.70325601 65.68613635 -107.60319999 61.56792296 -102.4765625 57.48046875 C-98.90068429 54.61145018 -95.34518323 51.71766753 -91.7890625 48.82421875 C-86.70325601 44.68613635 -81.60319999 40.56792296 -76.4765625 36.48046875 C-72.90068345 33.61144952 -69.34525862 30.71757601 -65.7890625 27.82421875 C-55.20250231 19.21453414 -55.20250231 19.21453414 -50.3515625 15.36328125 C-48.34232567 13.7644678 -46.3451401 12.15330576 -44.3515625 10.53515625 C-31.28124377 -0.00042876 -16.856398 -7.98018842 0 0 Z " fill="#000000" transform="translate(358.7890625,58.67578125)"/>
</svg>
