<?xml version="1.0" encoding="UTF-8"?>
<svg version="1.1" xmlns="http://www.w3.org/2000/svg" width="512" height="512">
<path d="M0 0 C1.22203125 -0.02835938 2.4440625 -0.05671875 3.703125 -0.0859375 C12.63911791 0.4851851 19.48321587 5.2072243 26 10.9375 C27.48321054 12.20058742 28.96760122 13.46229025 30.453125 14.72265625 C31.17951172 15.34414551 31.90589844 15.96563477 32.65429688 16.60595703 C35.62319118 19.11208566 38.67696526 21.49868027 41.75 23.875 C48.41533836 29.06267259 54.92475973 34.43060599 61.43359375 39.8125 C70.57314155 47.36714317 79.79108954 54.8266795 89.0625 62.21875 C93.3479956 65.65711275 97.6053727 69.13001727 101.8671875 72.59765625 C105.48319719 75.53822262 109.10573925 78.46944076 112.75 81.375 C117.81702315 85.41492386 122.84054617 89.50771376 127.8671875 93.59765625 C131.48319719 96.53822262 135.10573925 99.46944076 138.75 102.375 C143.81702315 106.41492386 148.84054617 110.50771376 153.8671875 114.59765625 C157.48319719 117.53822262 161.10573925 120.46944076 164.75 123.375 C169.81702315 127.41492386 174.84054617 131.50771376 179.8671875 135.59765625 C183.48319719 138.53822262 187.10573925 141.46944076 190.75 144.375 C195.81335545 148.41199962 200.83337291 152.5016695 205.85620117 156.58886719 C209.57925521 159.61668662 213.31053243 162.63300034 217.0625 165.625 C218.2071875 166.54539063 218.2071875 166.54539063 219.375 167.484375 C221.11119623 168.86647858 222.86356731 170.22833147 224.625 171.578125 C232.30350928 177.58206577 237.11389263 182.89186051 239.75 192.375 C240.73591124 203.33466448 240.17941476 213.04169489 233.125 222 C229.97419048 225.36918246 226.42685222 228.18330507 222.7890625 231.0078125 C219.06413993 233.90923034 215.40824149 236.8902637 211.75 239.875 C206.66481108 244.01383421 201.56412904 248.13130252 196.4375 252.21875 C192.86162179 255.08776857 189.30612073 257.98155122 185.75 260.875 C180.66419351 265.0130824 175.56413749 269.13129579 170.4375 273.21875 C166.86162179 276.08776857 163.30612073 278.98155122 159.75 281.875 C154.66419351 286.0130824 149.56413749 290.13129579 144.4375 294.21875 C140.86162179 297.08776857 137.30612073 299.98155122 133.75 302.875 C128.66419351 307.0130824 123.56413749 311.13129579 118.4375 315.21875 C114.86162179 318.08776857 111.30612073 320.98155122 107.75 323.875 C102.66419351 328.0130824 97.56413749 332.13129579 92.4375 336.21875 C88.86162179 339.08776857 85.30612073 341.98155122 81.75 344.875 C76.66419351 349.0130824 71.56413749 353.13129579 66.4375 357.21875 C62.86162179 360.08776857 59.30612073 362.98155122 55.75 365.875 C50.6676599 370.01026196 45.57443541 374.12981321 40.4453125 378.20703125 C38.23940792 379.98134581 36.05043938 381.77227751 33.8671875 383.57421875 C32.81917969 384.43563477 32.81917969 384.43563477 31.75 385.31445312 C30.3744246 386.44601561 29.00182117 387.58120473 27.6328125 388.72070312 C16.44016795 397.9098643 7.55337947 401.58939977 -7.25 400.375 C-16.21706157 398.37031555 -23.12811549 392.93165626 -28.125 385.3125 C-32.8853039 377.4396897 -33.00897718 369.34990518 -32.25 360.375 C-31.38876261 356.99855796 -30.09783049 354.31632512 -28.25 351.375 C-27.88390625 350.73691406 -27.5178125 350.09882813 -27.140625 349.44140625 C-23.30579713 343.55896967 -17.76159179 339.62846333 -12.24609375 335.44140625 C-7.9008389 332.13883915 -3.69983235 328.67202225 0.5 325.1875 C5.66593337 320.9135633 10.84886395 316.66821071 16.09765625 312.49609375 C19.66528658 309.64304033 23.20695613 306.75849326 26.75 303.875 C31.8357527 299.7368521 36.93586324 295.61870363 42.0625 291.53125 C45.63837821 288.66223143 49.19387927 285.76844878 52.75 282.875 C57.83580649 278.7369176 62.93586251 274.61870421 68.0625 270.53125 C71.63837821 267.66223143 75.19387927 264.76844878 78.75 261.875 C83.83580649 257.7369176 88.93586251 253.61870421 94.0625 249.53125 C97.63837821 246.66223143 101.19387927 243.76844878 104.75 240.875 C109.83580649 236.7369176 114.93586251 232.61870421 120.0625 228.53125 C123.63837832 225.66223135 127.19386918 222.76843655 130.75 219.875 C136.72680529 215.01226619 142.72352959 210.17612522 148.75 205.375 C150.41689601 204.0419534 152.08361809 202.7086892 153.75 201.375 C152.2132756 197.18041892 149.14177281 195.07953266 145.6875 192.5 C144.41129506 191.52274398 143.13662251 190.5434844 141.86328125 189.5625 C140.85515381 188.78712891 140.85515381 188.78712891 139.82666016 187.99609375 C136.28644894 185.23251481 132.83257088 182.36582029 129.375 179.5 C127.93897759 178.31228776 126.50277882 177.12478874 125.06640625 175.9375 C124.35371582 175.34839844 123.64102539 174.75929687 122.90673828 174.15234375 C114.47682622 167.20534807 105.97853242 160.34099206 97.4375 153.53125 C93.1520044 150.09288725 88.8946273 146.61998273 84.6328125 143.15234375 C81.01680281 140.21177738 77.39426075 137.28055924 73.75 134.375 C68.68297685 130.33507614 63.65945383 126.24228624 58.6328125 122.15234375 C55.01680281 119.21177738 51.39426075 116.28055924 47.75 113.375 C42.68297685 109.33507614 37.65945383 105.24228624 32.6328125 101.15234375 C29.01680281 98.21177738 25.39426075 95.28055924 21.75 92.375 C17.39433896 88.90224323 13.07099551 85.39069869 8.75 81.875 C4.40600766 78.34133799 0.06090575 74.80976437 -4.3125 71.3125 C-5.07175781 70.70148438 -5.83101562 70.09046875 -6.61328125 69.4609375 C-8.71911967 67.79498533 -10.84198433 66.16232038 -12.98046875 64.5390625 C-21.93445371 57.67281123 -29.1211873 51.64975236 -32.25 40.375 C-33.32898117 29.08333664 -32.23820791 19.9736118 -25 11.0625 C-18.04509816 3.69060191 -10.17444712 0.10642727 0 0 Z " fill="#000000" transform="translate(168.25,55.625)"/>
</svg>
