<svg width="624" height="624" xmlns="http://www.w3.org/2000/svg" xmlns:xlink="http://www.w3.org/1999/xlink" xml:space="preserve" overflow="hidden"><g><path d="M292.5 487.5C292.5 509.08 275.08 526.5 253.5 526.5 231.92 526.5 214.5 509.08 214.5 487.5 214.5 465.92 231.92 448.5 253.5 448.5 275.08 448.5 292.5 465.92 292.5 487.5ZM422.5 448.5C400.92 448.5 383.5 465.92 383.5 487.5 383.5 509.08 400.92 526.5 422.5 526.5 444.08 526.5 461.5 509.08 461.5 487.5 461.5 465.92 444.08 448.5 422.5 448.5ZM538.98 199.68 486.98 407.68C484.9 416.26 477.1 422.5 468 422.5L208 422.5C198.64 422.5 190.58 415.74 188.76 406.38L139.62 136.5 104 136.5C93.34 136.5 84.5 127.66 84.5 117 84.5 106.34 93.34 97.5 104 97.5L156 97.5C165.36 97.5 173.42 104.26 175.24 113.62L186.42 175.5 520 175.5C525.98 175.5 531.7 178.36 535.34 183.04 538.98 187.72 540.28 193.96 538.98 199.68ZM495.04 214.5 193.44 214.5 224.12 383.5 452.66 383.5 495.04 214.5Z" fill="#FFFFFF"/></g></svg>