<svg width="512" height="512" xmlns="http://www.w3.org/2000/svg" xmlns:xlink="http://www.w3.org/1999/xlink" xml:space="preserve" overflow="hidden"><defs><clipPath id="clip0"><rect x="0" y="0" width="512" height="512"/></clipPath></defs><g clip-path="url(#clip0)"><path d="M268.625 12.6875C270.227 13.6367 270.227 13.6367 272 15 273.419 16.0566 273.419 16.0566 274.867 17.1345 278.234 19.9581 280.077 23.2636 281.902 27.2109 282.238 27.9107 282.574 28.6104 282.921 29.3314 286.713 37.322 290.149 45.4673 293.562 53.625 294.282 55.3337 295.003 57.0421 295.724 58.7502 296.887 61.5064 298.05 64.2627 299.211 67.0199 303.839 78.0057 308.518 88.9694 313.194 99.9344 315.646 105.686 318.097 111.439 320.547 117.191 321.249 118.841 321.249 118.841 321.966 120.523 327.992 134.676 334 148.836 340 163 347.339 163.704 354.679 164.406 362.018 165.107 364.757 165.369 367.496 165.631 370.234 165.894 387.84 167.585 405.449 169.23 423.065 170.809 428.934 171.336 434.801 171.869 440.669 172.402 446.447 172.925 452.225 173.439 458.004 173.947 461.649 174.269 465.294 174.6 468.938 174.934 470.638 175.088 472.339 175.238 474.04 175.384 497.161 177.373 497.161 177.373 506 186 512.471 194.478 512.73 202.695 512 213 510.484 218.604 507.261 222.135 503 226 501.957 227.082 500.915 228.165 499.875 229.25 497.024 232.107 494.021 234.659 490.875 237.188 486.584 240.638 482.513 244.238 478.5 248 473.762 252.439 468.879 256.591 463.812 260.656 460.018 263.818 456.437 267.185 452.834 270.561 449.508 273.658 446.113 276.596 442.562 279.438 438.188 282.946 434.08 286.658 430 290.5 425.093 295.12 420.062 299.462 414.797 303.676 410.926 306.892 407.255 310.306 403.59 313.752 402.824 314.47 402.824 314.47 402.043 315.203 401.547 315.678 401.051 316.153 400.541 316.643 399 318 399 318 397.245 319.154 395.271 320.396 395.271 320.396 393 323 393.319 330.338 395.09 337.401 396.744 344.537 397.024 345.763 397.303 346.988 397.592 348.251 398.354 351.589 399.122 354.925 399.891 358.261 400.699 361.767 401.501 365.275 402.303 368.783 403.823 375.424 405.348 382.063 406.875 388.703 408.776 396.969 410.67 405.236 412.564 413.504 414.5 421.952 416.437 430.401 418.378 438.848 418.676 440.148 418.975 441.449 419.274 442.749 419.823 445.14 420.372 447.53 420.922 449.921 421.617 452.947 422.309 455.973 423 459 423.201 459.879 423.403 460.758 423.61 461.664 423.791 462.463 423.972 463.263 424.159 464.087 424.314 464.772 424.47 465.458 424.631 466.164 426.672 476.31 424.418 484.824 418.812 493.312 412.794 499.063 406.173 502.083 397.875 502.312 397.006 502.35 396.137 502.387 395.242 502.426 385.448 501.14 376.942 495.283 368.625 490.312 367.352 489.558 366.078 488.805 364.804 488.052 354.831 482.142 344.921 476.127 335.023 470.093 325.456 464.261 315.822 458.549 306.167 452.867 300.29 449.403 294.422 445.924 288.556 442.444 287.17 441.622 285.783 440.8 284.397 439.979 283.076 439.197 281.755 438.414 280.434 437.63 279.151 436.869 277.867 436.11 276.582 435.353 273.46 433.505 270.383 431.614 267.356 429.612 266.775 429.233 266.193 428.855 265.594 428.465 264.017 427.433 262.451 426.382 260.887 425.329 257.306 423.681 255.741 423.861 252 425 249.19 426.352 249.19 426.352 246.414 428.148 245.335 428.814 244.256 429.48 243.145 430.166 242.287 430.704 242.287 430.704 241.413 431.253 238.948 432.8 236.47 434.325 233.992 435.852 232.678 436.661 231.365 437.471 230.052 438.283 223.422 442.375 216.723 446.349 210.014 450.311 199.235 456.676 188.498 463.104 177.812 469.625 166.811 476.337 155.728 482.899 144.589 489.381 137.428 493.553 137.428 493.553 130.375 497.902 123.403 502.235 116.057 503.102 108 502 99.9495 499.352 94.0646 495.502 90 488 89.6636 487.384 89.3271 486.768 88.9805 486.133 84.7711 476.868 87.0285 466.095 89.2915 456.601 89.5355 455.531 89.7794 454.461 90.0308 453.358 90.8338 449.849 91.655 446.345 92.4766 442.84 93.0463 440.366 93.6148 437.892 94.1822 435.418 95.5255 429.572 96.8802 423.73 98.2407 417.889 99.9148 410.699 101.573 403.505 103.23 396.311 104.934 388.917 106.639 381.523 108.356 374.132 109.649 368.565 110.932 362.996 112.21 357.426 112.76 355.043 113.313 352.661 113.871 350.28 114.741 346.561 115.599 342.838 116.455 339.115 116.725 337.974 116.995 336.833 117.274 335.657 117.515 334.596 117.757 333.534 118.006 332.44 118.222 331.508 118.439 330.576 118.662 329.615 119.032 326.754 118.829 324.756 118 322 115.876 319.534 115.876 319.534 113.125 317.25 112.631 316.817 112.137 316.383 111.628 315.937 107.495 312.338 103.216 308.919 98.9492 305.48 94.8902 302.067 91.0547 298.435 87.1943 294.8 82.8781 290.758 78.3951 287.004 73.7773 283.309 70.5756 280.647 67.5376 277.845 64.5 275 60.6042 271.351 56.6667 267.843 52.5 264.5 47.0956 260.161 42.0504 255.496 36.9844 250.773 32.3355 246.44 27.5337 242.297 22.6836 238.191 0.726776 219.576 0.726776 219.576-0.410156 209.289-0.850555 201.011-0.155243 193.8 5 187 10.2146 181.312 16.2942 177.907 24.01 176.987 24.6367 176.911 25.2635 176.835 25.9092 176.757 37.4846 175.418 49.1051 174.452 60.7102 173.407 64.3167 173.082 67.9229 172.752 71.5292 172.423 78.3436 171.803 85.1583 171.185 91.9731 170.568 104.187 169.463 116.401 168.353 128.614 167.241 132.891 166.852 137.168 166.464 141.445 166.078 143.464 165.895 145.483 165.712 147.502 165.529 149.954 165.306 152.406 165.084 154.858 164.864 156.98 164.67 159.102 164.47 161.222 164.262 162.969 164.097 164.717 163.957 166.468 163.852 170.535 163.585 170.535 163.585 173.674 161.207 173.992 160.418 174.311 159.63 174.639 158.818 175.022 157.916 175.405 157.013 175.8 156.084 176.186 155.085 176.571 154.087 176.969 153.059 177.62 151.491 177.62 151.491 178.284 149.891 179.719 146.418 181.109 142.928 182.5 139.438 183.498 137.004 184.499 134.572 185.503 132.141 187.074 128.338 188.642 124.533 190.194 120.722 193.848 111.754 197.594 102.83 201.418 93.9336 201.682 93.3199 201.946 92.7061 202.217 92.0738 203.53 89.0213 204.845 85.9696 206.161 82.9182 208.11 78.3956 210.051 73.8696 211.99 69.3428 212.914 67.1875 213.84 65.033 214.768 62.8792 216.992 57.7112 219.2 52.5373 221.359 47.3419 222.42 44.7925 223.489 42.2466 224.559 39.701 225.308 37.9095 226.045 36.113 226.782 34.3165 230.021 26.6221 233.575 18.332 241.188 14.0625 241.841 13.6822 242.495 13.302 243.168 12.9102 249.962 9.53486 261.775 9.37603 268.625 12.6875ZM255 53C254.765 53.5522 254.53 54.1043 254.288 54.6732 244.684 77.2535 235.079 99.8336 225.41 122.387 225.142 123.012 224.874 123.636 224.599 124.28 221.758 130.905 218.916 137.529 216.072 144.152 215.596 145.262 215.12 146.372 214.629 147.515 213.705 149.67 212.779 151.824 211.853 153.978 209.761 158.851 207.689 163.73 205.673 168.635 205.313 169.508 204.953 170.38 204.582 171.279 203.924 172.877 203.272 174.478 202.627 176.082 199.037 184.792 194.382 190.297 185.719 194.068 180.645 195.807 175.421 196.139 170.104 196.599 168.876 196.718 167.649 196.837 166.384 196.959 162.591 197.321 158.796 197.662 155 198 152.763 198.208 150.526 198.417 148.29 198.627 142.791 199.138 137.291 199.627 131.79 200.108 128.225 200.421 124.659 200.738 121.094 201.056 110.983 201.957 100.873 202.855 90.7607 203.741 84.5163 204.289 78.2726 204.845 72.0293 205.405 69.666 205.616 67.3024 205.824 64.9386 206.028 61.6609 206.312 58.3841 206.606 55.1074 206.903 54.1372 206.984 53.167 207.066 52.1674 207.15 50.8315 207.274 50.8315 207.274 49.4686 207.4 48.6975 207.468 47.9264 207.536 47.1319 207.606 44.803 208.036 43.0586 208.848 41 210 50.0357 218.493 50.0357 218.493 59.5 226.5 64.2611 230.32 68.7127 234.389 73.1641 238.559 76.5112 241.676 79.9301 244.636 83.5 247.5 88.2619 251.321 92.7144 255.391 97.1663 259.561 100.492 262.658 103.887 265.596 107.438 268.438 111.813 271.946 115.92 275.659 120 279.5 126.569 285.683 133.472 291.362 140.504 297.012 146.742 302.242 151.29 307.892 153 316 153.673 324.276 152.243 331.848 150.354 339.872 150.073 341.109 149.791 342.346 149.501 343.621 148.737 346.983 147.958 350.341 147.177 353.699 146.358 357.23 145.554 360.764 144.748 364.298 143.221 370.984 141.683 377.667 140.14 384.349 137.378 396.315 134.635 408.286 131.896 420.258 130.936 424.453 129.971 428.646 129.002 432.839 128.544 434.82 128.088 436.801 127.633 438.783 127.08 441.191 126.524 443.598 125.965 446.004 124.669 451.666 123.586 457.219 123 463 131.975 458.224 140.71 453.083 149.438 447.875 150.877 447.018 152.316 446.161 153.756 445.305 161.94 440.432 170.113 435.542 178.274 430.632 183.323 427.597 188.383 424.581 193.449 421.574 194.115 421.179 194.781 420.784 195.467 420.377 198.921 418.327 202.377 416.279 205.834 414.234 212.338 410.384 218.825 406.511 225.262 402.551 226.944 401.522 226.944 401.522 228.659 400.472 230.731 399.201 232.798 397.922 234.858 396.632 244.284 390.868 252.968 387.388 264 390 273.482 394.087 282.306 399.441 291.062 404.875 293.52 406.387 295.98 407.893 298.441 409.398 299.378 409.972 299.378 409.972 300.333 410.557 307.001 414.63 313.747 418.568 320.5 422.5 331.882 429.135 343.167 435.916 354.415 442.774 365.573 449.577 376.785 456.29 388 463 389.153 459.564 388.834 457.236 388.026 453.731 387.785 452.664 387.544 451.597 387.295 450.498 387.022 449.333 386.749 448.168 386.467 446.967 386.186 445.736 385.905 444.505 385.615 443.236 384.845 439.86 384.062 436.487 383.278 433.114 382.459 429.583 381.651 426.049 380.841 422.515 379.306 415.819 377.761 409.124 376.212 402.431 374.282 394.085 372.364 385.737 370.445 377.389 369.774 374.466 369.102 371.543 368.43 368.621 368.267 367.913 368.104 367.205 367.937 366.475 366.814 361.592 365.688 356.709 364.56 351.827 364.258 350.518 363.956 349.208 363.654 347.899 363.095 345.478 362.536 343.058 361.976 340.637 361.606 339.033 361.606 339.033 361.228 337.396 361.014 336.469 360.799 335.542 360.579 334.587 358.288 324.344 357.765 315.469 363 306 365.622 302.372 368.417 299.685 371.938 296.938 376.296 293.45 380.43 289.82 384.5 286 388.374 282.37 392.289 278.882 396.438 275.562 400.812 272.054 404.92 268.342 409 264.5 413.913 259.874 418.951 255.527 424.223 251.309 427.424 248.647 430.462 245.845 433.5 243 437.396 239.351 441.333 235.843 445.5 232.5 450.339 228.616 454.887 224.489 459.417 220.255 462.327 217.536 465.262 214.876 468.312 212.312 469.199 211.549 470.086 210.786 471 210 471 209.67 471 209.34 471 209 458.107 207.044 445.143 205.964 432.156 204.843 428.161 204.498 424.167 204.147 420.172 203.794 408.825 202.793 397.478 201.798 386.13 200.816 379.835 200.272 373.541 199.72 367.247 199.16 363.931 198.866 360.615 198.576 357.298 198.293 353.601 197.978 349.906 197.649 346.21 197.319 345.132 197.23 344.055 197.141 342.944 197.049 333.531 196.184 322.193 195.136 315.719 187.487 310.426 180.064 307.247 171.669 303.799 163.289 301.742 158.291 299.653 153.307 297.57 148.32 297.128 147.258 296.685 146.196 296.23 145.102 290.75 131.964 285.121 118.89 279.5 105.812 277.551 101.278 275.603 96.7426 273.656 92.207 273.193 91.1277 272.729 90.0483 272.252 88.9362 267.123 76.9764 262.058 64.9901 257 53 256.34 53 255.68 53 255 53Z" fill="#FFC000"/></g></svg>