<?xml version="1.0" encoding="UTF-8"?>
<svg version="1.1" xmlns="http://www.w3.org/2000/svg" width="512" height="512">
<path d="M0 0 C6.908898 5.1816735 10.42851335 16.68463865 14.08300781 24.39672852 C21.00442411 38.99875878 28.24045635 53.43904098 35.5 67.875 C49.85103612 96.41274002 49.85103612 96.41274002 56.42260742 110.36450195 C57.24490061 112.10398784 58.09775285 113.82922988 58.97434998 115.54199219 C60.23993021 118.30683913 61.17854138 120.92652338 62.10585022 123.80957031 C64.40585847 130.26617148 66.76151294 136.83343035 73.05408859 140.26977539 C80.91848859 143.03111839 89.19275609 143.73392231 97.43359375 144.625 C100.11488573 144.97214138 102.79210882 145.34700233 105.46974182 145.72119141 C111.79712966 146.58948525 118.13223503 147.36482543 124.47561938 148.10610008 C131.59090887 148.94180923 138.69192582 149.8766011 145.79331672 150.82220459 C155.74196493 152.14611478 165.69388517 153.43048712 175.65696812 154.6418457 C186.62064824 155.97742405 197.57494552 157.37434942 208.51196289 158.9140625 C209.64546645 159.06571869 210.77897001 159.21737488 211.94682217 159.37362671 C213.52335111 159.60174545 213.52335111 159.60174545 215.13172913 159.83447266 C216.0509015 159.96326813 216.97007387 160.0920636 217.91709995 160.22476196 C221.65844572 161.16663555 224.45629939 162.93926842 227.3125 165.5 C229.24398141 169.36296283 229.36683974 172.66803233 228.5 176.875 C227.25708008 178.73510742 227.25708008 178.73510742 225.58203125 180.54296875 C224.9468457 181.23213379 224.31166016 181.92129883 223.65722656 182.63134766 C219.66952438 186.77881066 215.64006386 190.87828977 211.5625 194.9375 C210.27956055 196.22624023 210.27956055 196.22624023 208.97070312 197.54101562 C207.70323242 198.80655273 207.70323242 198.80655273 206.41015625 200.09765625 C205.65871338 200.84797119 204.90727051 201.59828613 204.13305664 202.37133789 C202.01232476 204.38785207 199.86125729 206.31063585 197.64819336 208.22241211 C193.66413457 211.68517694 189.92473385 215.3374907 186.21875 219.09375 C185.56096558 219.75532104 184.90318115 220.41689209 184.22546387 221.09851074 C182.14782726 223.18822735 180.07349373 225.28117315 178 227.375 C175.2634185 230.138417 172.52337737 232.89833722 169.78125 235.65625 C169.16954956 236.27624878 168.55784912 236.89624756 167.9276123 237.53503418 C164.8846634 240.59489867 161.78943878 243.53199901 158.52246094 246.35253906 C154.44541629 249.87518828 150.64353423 253.6203647 146.859375 257.453125 C146.16990784 258.14637878 145.48044067 258.83963257 144.77008057 259.55389404 C142.59424447 261.74182052 140.4217176 263.93298598 138.25 266.125 C135.37269092 269.02893909 132.49205805 271.92952161 129.609375 274.828125 C128.62804596 275.82190155 128.62804596 275.82190155 127.62689209 276.83575439 C127.01235168 277.45359802 126.39781128 278.07144165 125.76464844 278.70800781 C125.22918396 279.24870911 124.69371948 279.7894104 124.14202881 280.34649658 C122.35695292 282.0081572 120.47325269 283.44440018 118.5 284.875 C120.59727111 300.51408496 123.19025694 316.04684217 125.92206573 331.58645248 C126.65780103 335.77302955 127.38683341 339.96075825 128.11468506 344.14871216 C130.18179347 356.03825586 132.25320188 367.92702688 134.34082031 379.81298828 C135.50097312 386.41869825 136.65345877 393.02569764 137.79737449 399.63423932 C138.40012987 403.11444035 139.00681717 406.59385147 139.62311554 410.07168198 C140.307483 413.93367279 140.97519281 417.7984419 141.64160156 421.66357422 C141.84619995 422.80230988 142.05079834 423.94104553 142.26159668 425.11428833 C143.20274748 430.65563462 143.94440736 435.39339892 142.5 440.875 C140.31008403 443.45797781 138.53168312 445.35915844 135.5 446.875 C129.94691223 447.32195585 126.63615004 446.34508858 121.75 443.75 C121.08371582 443.40163086 120.41743164 443.05326172 119.73095703 442.69433594 C118.19763068 441.89189175 116.66740043 441.08351471 115.13964844 440.27050781 C112.18048591 438.7060819 109.20506503 437.17571411 106.2265625 435.6484375 C95.788985 430.28764089 85.39588866 424.86283712 75.125 419.1875 C64.39423598 413.26103895 53.48032911 407.70433893 42.56362915 402.13119507 C32.06636732 396.76970532 21.62505465 391.34098844 11.3203125 385.61523438 C9.80667012 384.77474451 8.28943154 383.94068664 6.76806641 383.11425781 C5.13849544 382.22387006 3.52237253 381.30870379 1.91552734 380.37792969 C0.61736084 379.6610498 0.61736084 379.6610498 -0.70703125 378.9296875 C-1.48151611 378.48866699 -2.25600098 378.04764648 -3.05395508 377.59326172 C-8.08846741 376.11491704 -12.80899285 379.41499107 -17.21875 381.7109375 C-18.30349609 382.27393555 -19.38824219 382.83693359 -20.50585938 383.41699219 C-21.65892578 384.02188477 -22.81199219 384.62677734 -24 385.25 C-25.22192643 385.88719537 -26.44393279 386.52423747 -27.66601562 387.16113281 C-35.69377664 391.35504708 -43.64885267 395.67313189 -51.5793457 400.04785156 C-60.36484045 404.86186447 -69.27270822 409.43165611 -78.1875 414 C-78.95381744 414.39275116 -79.72013489 414.78550232 -80.50967407 415.19015503 C-83.50890098 416.72709048 -86.50823211 418.26382226 -89.50773621 419.80021667 C-100.02456358 425.18979037 -110.48000535 430.68540654 -120.86328125 436.328125 C-121.96325439 436.92584717 -123.06322754 437.52356934 -124.1965332 438.1394043 C-126.35672129 439.31520692 -128.51547593 440.49364792 -130.67260742 441.67504883 C-131.64689697 442.20638428 -132.62118652 442.73771973 -133.625 443.28515625 C-134.49382812 443.76090088 -135.36265625 444.23664551 -136.2578125 444.72680664 C-140.47986886 446.88886359 -143.78674783 447.27442815 -148.5 446.875 C-151.8417354 445.17260649 -153.91655413 443.96464797 -155.70210266 440.62994385 C-156.68203349 437.24648299 -156.44418267 434.9771131 -155.95385742 431.48339844 C-155.8597996 430.80683071 -155.76574179 430.13026299 -155.66883373 429.43319321 C-154.02775144 418.0812197 -151.97535177 406.78677779 -149.9984684 395.48932648 C-149.22494522 391.06874667 -148.45824703 386.64699902 -147.69267273 382.22503662 C-145.51713626 369.66486478 -143.33332764 357.1061423 -141.14135742 344.54882812 C-139.92564644 337.58393988 -138.71580063 330.61805836 -137.5123288 323.65104461 C-136.75267997 319.25542157 -135.98574786 314.86115221 -135.21336901 310.46774912 C-134.62435418 307.1049562 -134.04602988 303.74034171 -133.46606445 300.37597656 C-133.14278419 298.55575485 -133.14278419 298.55575485 -132.81297302 296.69876099 C-132.62371246 295.58888824 -132.4344519 294.4790155 -132.23945618 293.33551025 C-132.07152211 292.37181644 -131.90358805 291.40812263 -131.73056507 290.41522598 C-131.50074137 287.88316792 -131.62340216 286.24735804 -132.5 283.875 C-134.26833926 281.96455381 -134.26833926 281.96455381 -136.5859375 280.1015625 C-141.23842838 276.05814905 -145.63380862 271.8349701 -149.9765625 267.4609375 C-150.63678406 266.79733215 -151.29700562 266.13372681 -151.97723389 265.45001221 C-154.02855206 263.38537579 -156.07720357 261.31812916 -158.125 259.25 C-160.84334453 256.50480446 -163.56516866 253.76312568 -166.2890625 251.0234375 C-166.89448883 250.40971283 -167.49991516 249.79598816 -168.12368774 249.16366577 C-171.15538582 246.11492956 -174.2416773 243.19084108 -177.49560547 240.37939453 C-181.4382121 236.97242585 -185.12294582 233.3641828 -188.78125 229.65625 C-189.43903442 228.99467896 -190.09681885 228.33310791 -190.77453613 227.65148926 C-193.55066558 224.85921856 -196.32071537 222.06094584 -199.09130859 219.26318359 C-201.1316708 217.20459102 -203.17514331 215.14912097 -205.21875 213.09375 C-206.13630066 212.16375183 -206.13630066 212.16375183 -207.0723877 211.21496582 C-210.7985835 207.4680563 -214.65692689 203.94435694 -218.65542603 200.49026489 C-221.06867531 198.37701983 -223.35160331 196.15296739 -225.62109375 193.88671875 C-226.92916992 192.58057617 -226.92916992 192.58057617 -228.26367188 191.24804688 C-229.14603516 190.36181641 -230.02839844 189.47558594 -230.9375 188.5625 C-231.84693359 187.65693359 -232.75636719 186.75136719 -233.69335938 185.81835938 C-234.55638672 184.95404297 -235.41941406 184.08972656 -236.30859375 183.19921875 C-237.09032959 182.41635498 -237.87206543 181.63349121 -238.67749023 180.8269043 C-241.658976 177.63373904 -241.79374431 175.25766901 -241.70703125 170.90625 C-241.39170516 167.81248455 -240.56016368 166.20099125 -238.5 163.875 C-231.94011649 160.30555363 -224.85827269 159.64419395 -217.55004883 158.62255859 C-216.1366832 158.41768466 -214.72344247 158.21194754 -213.31031799 158.00541687 C-209.48947396 157.44941776 -205.66702183 156.905302 -201.84417939 156.36323881 C-197.83849143 155.79304461 -193.83445749 155.21146732 -189.83024597 154.63101196 C-182.25022578 153.5338824 -174.66887063 152.44629356 -167.08694047 151.36245024 C-155.95357461 149.7705339 -144.82213094 148.16527574 -133.69085979 146.55878639 C-132.87429828 146.44094429 -132.05773677 146.3231022 -131.21643096 146.20168912 C-129.58841942 145.96674094 -127.96041146 145.73176799 -126.33240718 145.49676955 C-121.5662579 144.80913068 -116.79967285 144.12461676 -112.03268206 143.44283652 C-109.07035268 143.01891429 -106.10824941 142.59342658 -103.14618492 142.16765785 C-101.77245435 141.97059894 -100.39861927 141.77426698 -99.02467346 141.57871437 C-97.14975042 141.31179445 -95.27521988 141.04212182 -93.40071106 140.77230835 C-92.35158444 140.62226538 -91.30245783 140.4722224 -90.2215395 140.31763268 C-86.81326681 139.78537002 -86.81326681 139.78537002 -83.5 138.875 C-81.79625512 136.49638876 -81.79625512 136.49638876 -80.37475586 133.43505859 C-79.78991928 132.26808441 -79.2050827 131.10111023 -78.6025238 129.89877319 C-77.97297191 128.60715309 -77.34375471 127.31536981 -76.71484375 126.0234375 C-76.05306007 124.68932733 -75.39007967 123.35581021 -74.72596741 122.02285767 C-72.97011575 118.49004857 -71.23151922 114.94900561 -69.49609375 111.40612793 C-67.77188787 107.89429117 -66.03048332 104.39101326 -64.29101562 100.88671875 C-57.92986613 88.05334925 -51.66084828 75.17890336 -45.50717163 62.24464417 C-40.51720415 51.77478236 -35.38036617 41.37845087 -30.20874023 30.99731445 C-29.095196 28.75850099 -27.98526733 26.51788617 -26.87866211 24.27563477 C-25.25106028 20.9780296 -23.61311349 17.68575633 -21.97265625 14.39453125 C-21.48096451 13.39363968 -20.98927277 12.39274811 -20.48268127 11.36152649 C-20.01796921 10.43502792 -19.55325714 9.50852936 -19.07446289 8.55395508 C-18.67240128 7.74396561 -18.27033966 6.93397614 -17.85609436 6.09944153 C-13.78541031 -0.57782144 -7.51876426 -3.38344392 0 0 Z " fill="#FFB300" transform="translate(262.5,33.125)"/>
<path d="M0 0 C0.33 124.41 0.66 248.82 1 377 C-9.89 382.61 -20.78 388.22 -32 394 C-40.01188198 398.37378851 -40.01188198 398.37378851 -48.01171875 402.76953125 C-55.82997175 407.02867766 -63.76456178 411.0651824 -71.6875 415.125 C-72.45436127 415.51802307 -73.22122253 415.91104614 -74.01132202 416.315979 C-77.00997081 417.85262117 -80.00871814 419.3890708 -83.00764465 420.9251709 C-93.52450464 426.31475564 -103.97997546 431.8103903 -114.36328125 437.453125 C-115.46325439 438.05084717 -116.56322754 438.64856934 -117.6965332 439.2644043 C-119.85672129 440.44020692 -122.01547593 441.61864792 -124.17260742 442.80004883 C-125.14689697 443.33138428 -126.12118652 443.86271973 -127.125 444.41015625 C-127.99382812 444.88590088 -128.86265625 445.36164551 -129.7578125 445.85180664 C-133.97986886 448.01386359 -137.28674783 448.39942815 -142 448 C-145.3417354 446.29760649 -147.41655413 445.08964797 -149.20210266 441.75494385 C-150.18203349 438.37148299 -149.94418267 436.1021131 -149.45385742 432.60839844 C-149.3597996 431.93183071 -149.26574179 431.25526299 -149.16883373 430.55819321 C-147.52775144 419.2062197 -145.47535177 407.91177779 -143.4984684 396.61432648 C-142.72494522 392.19374667 -141.95824703 387.77199902 -141.19267273 383.35003662 C-139.01713626 370.78986478 -136.83332764 358.2311423 -134.64135742 345.67382812 C-133.42564644 338.70893988 -132.21580063 331.74305836 -131.0123288 324.77604461 C-130.25267997 320.38042157 -129.48574786 315.98615221 -128.71336901 311.59274912 C-128.12435418 308.2299562 -127.54602988 304.86534171 -126.96606445 301.50097656 C-126.64278419 299.68075485 -126.64278419 299.68075485 -126.31297302 297.82376099 C-126.12371246 296.71388824 -125.9344519 295.6040155 -125.73945618 294.46051025 C-125.57152211 293.49681644 -125.40358805 292.53312263 -125.23056507 291.54022598 C-125.00074137 289.00816792 -125.12340216 287.37235804 -126 285 C-127.76833926 283.08955381 -127.76833926 283.08955381 -130.0859375 281.2265625 C-134.73842838 277.18314905 -139.13380862 272.9599701 -143.4765625 268.5859375 C-144.13678406 267.92233215 -144.79700562 267.25872681 -145.47723389 266.57501221 C-147.52855206 264.51037579 -149.57720357 262.44312916 -151.625 260.375 C-154.34334453 257.62980446 -157.06516866 254.88812568 -159.7890625 252.1484375 C-160.39448883 251.53471283 -160.99991516 250.92098816 -161.62368774 250.28866577 C-164.65538582 247.23992956 -167.7416773 244.31584108 -170.99560547 241.50439453 C-174.9382121 238.09742585 -178.62294582 234.4891828 -182.28125 230.78125 C-182.93903442 230.11967896 -183.59681885 229.45810791 -184.27453613 228.77648926 C-187.05066558 225.98421856 -189.82071537 223.18594584 -192.59130859 220.38818359 C-194.6316708 218.32959102 -196.67514331 216.27412097 -198.71875 214.21875 C-199.63630066 213.28875183 -199.63630066 213.28875183 -200.5723877 212.33996582 C-204.2985835 208.5930563 -208.15692689 205.06935694 -212.15542603 201.61526489 C-214.56867531 199.50201983 -216.85160331 197.27796739 -219.12109375 195.01171875 C-220.42916992 193.70557617 -220.42916992 193.70557617 -221.76367188 192.37304688 C-222.64603516 191.48681641 -223.52839844 190.60058594 -224.4375 189.6875 C-225.34693359 188.78193359 -226.25636719 187.87636719 -227.19335938 186.94335938 C-228.05638672 186.07904297 -228.91941406 185.21472656 -229.80859375 184.32421875 C-230.59032959 183.54135498 -231.37206543 182.75849121 -232.17749023 181.9519043 C-235.158976 178.75873904 -235.29374431 176.38266901 -235.20703125 172.03125 C-234.89170516 168.93748455 -234.06016368 167.32599125 -232 165 C-225.44011649 161.43055363 -218.35827269 160.76919395 -211.05004883 159.74755859 C-209.6366832 159.54268466 -208.22344247 159.33694754 -206.81031799 159.13041687 C-202.98947396 158.57441776 -199.16702183 158.030302 -195.34417939 157.48823881 C-191.33849143 156.91804461 -187.33445749 156.33646732 -183.33024597 155.75601196 C-175.75022578 154.6588824 -168.16887063 153.57129356 -160.58694047 152.48745024 C-149.45357461 150.8955339 -138.32213094 149.29027574 -127.19085979 147.68378639 C-126.37429828 147.56594429 -125.55773677 147.4481022 -124.71643096 147.32668912 C-123.08841942 147.09174094 -121.46041146 146.85676799 -119.83240718 146.62176955 C-115.0662579 145.93413068 -110.29967285 145.24961676 -105.53268206 144.56783652 C-102.57035268 144.14391429 -99.60824941 143.71842658 -96.64618492 143.29265785 C-95.27245435 143.09559894 -93.89861927 142.89926698 -92.52467346 142.70371437 C-90.64975042 142.43679445 -88.77521988 142.16712182 -86.90071106 141.89730835 C-85.85158444 141.74726538 -84.80245783 141.5972224 -83.7215395 141.44263268 C-80.31326681 140.91037002 -80.31326681 140.91037002 -77 140 C-75.29625512 137.62138876 -75.29625512 137.62138876 -73.87475586 134.56005859 C-73.28991928 133.39308441 -72.7050827 132.22611023 -72.1025238 131.02377319 C-71.47297191 129.73215309 -70.84375471 128.44036981 -70.21484375 127.1484375 C-69.55306007 125.81432733 -68.89007967 124.48081021 -68.22596741 123.14785767 C-66.47011575 119.61504857 -64.73151922 116.07400561 -62.99609375 112.53112793 C-61.27188787 109.01929117 -59.53048332 105.51601326 -57.79101562 102.01171875 C-51.42986613 89.17834925 -45.16084828 76.30390336 -39.00717163 63.36964417 C-34.01720415 52.89978236 -28.88036617 42.50345087 -23.70874023 32.12231445 C-22.595196 29.88350099 -21.48526733 27.64288617 -20.37866211 25.40063477 C-18.75106028 22.1030296 -17.11311349 18.81075633 -15.47265625 15.51953125 C-14.98096451 14.51863968 -14.48927277 13.51774811 -13.98268127 12.48652649 C-13.51796921 11.56002792 -13.05325714 10.63352936 -12.57446289 9.67895508 C-12.17240128 8.86896561 -11.77033966 8.05897614 -11.35609436 7.22444153 C-8.46146322 2.4762928 -5.71907891 0 0 0 Z " fill="#FFCA27" transform="translate(256,32)"/>
</svg>
